<svg xmlns="http://www.w3.org/2000/svg" xmlns:xlink="http://www.w3.org/1999/xlink" width="500" zoomAndPan="magnify" viewBox="0 0 375 374.999991" height="500" preserveAspectRatio="xMidYMid meet" version="1.0"><defs><clipPath id="48c2573faa"><path d="M 30 22.554688 L 346 22.554688 L 346 352.554688 L 30 352.554688 Z M 30 22.554688 " clip-rule="nonzero"/></clipPath></defs><g clip-path="url(#48c2573faa)"><path fill="#0fb2f2" d="M 35.726562 253.683594 L 54.5625 286.246094 C 64.886719 304.019531 87.660156 310.191406 105.429688 299.976562 L 115.324219 294.226562 C 120.644531 297.742188 126.179688 300.933594 131.925781 303.699219 L 131.925781 315.191406 C 131.925781 335.730469 148.632812 352.4375 169.171875 352.4375 L 206.84375 352.4375 C 227.378906 352.4375 244.085938 335.730469 244.085938 315.191406 L 244.085938 303.699219 C 249.832031 300.933594 255.367188 297.738281 260.6875 294.226562 L 270.582031 299.976562 C 288.355469 310.191406 311.128906 304.125 321.449219 286.246094 L 340.285156 253.683594 C 343.691406 247.832031 345.285156 241.449219 345.285156 235.0625 C 345.285156 222.1875 338.582031 209.628906 326.664062 202.710938 L 316.765625 197.074219 C 316.980469 193.773438 317.085938 190.582031 317.085938 187.496094 C 317.085938 184.410156 316.980469 181.21875 316.765625 177.917969 L 326.664062 172.277344 C 344.433594 161.957031 350.5 139.183594 340.285156 121.304688 L 321.449219 88.742188 C 316.449219 80.125 308.46875 73.953125 298.78125 71.292969 C 289.207031 68.738281 279.203125 70.121094 270.582031 75.015625 L 260.6875 80.761719 C 255.367188 77.25 249.832031 74.058594 244.085938 71.292969 L 244.085938 59.800781 C 244.085938 39.261719 227.378906 22.554688 206.839844 22.554688 L 169.171875 22.554688 C 148.632812 22.554688 131.925781 39.261719 131.925781 59.800781 L 131.925781 71.292969 C 126.179688 74.058594 120.644531 77.25 115.324219 80.761719 L 105.429688 75.015625 C 96.808594 70.121094 86.808594 68.738281 77.230469 71.292969 C 67.546875 73.953125 59.566406 80.125 54.5625 88.742188 L 35.726562 121.304688 C 25.511719 139.183594 31.578125 161.957031 49.347656 172.277344 L 59.246094 177.917969 C 59.03125 181.21875 58.925781 184.410156 58.925781 187.496094 C 58.925781 190.582031 59.03125 193.773438 59.246094 197.074219 L 49.347656 202.710938 C 31.578125 213.035156 25.511719 235.808594 35.726562 253.683594 Z M 188.027344 118.1875 C 226.292969 118.1875 257.335938 149.230469 257.335938 187.496094 C 257.335938 225.761719 226.292969 256.804688 188.027344 256.804688 C 149.761719 256.804688 118.71875 225.761719 118.71875 187.496094 C 118.71875 149.230469 149.761719 118.1875 188.027344 118.1875 Z M 188.027344 118.1875 " fill-opacity="1" fill-rule="nonzero"/></g></svg>