<svg xmlns="http://www.w3.org/2000/svg" xmlns:xlink="http://www.w3.org/1999/xlink" width="500" zoomAndPan="magnify" viewBox="0 0 375 374.999991" height="500" preserveAspectRatio="xMidYMid meet" version="1.0"><defs><clipPath id="21536bb071"><path d="M 44.980469 44.980469 L 329.980469 44.980469 L 329.980469 329.980469 L 44.980469 329.980469 Z M 44.980469 44.980469 " clip-rule="nonzero"/></clipPath></defs><g clip-path="url(#21536bb071)"><path fill="#34b226" d="M 329.980469 187.480469 C 329.980469 189.8125 329.925781 192.144531 329.808594 194.472656 C 329.695312 196.804688 329.523438 199.128906 329.296875 201.449219 C 329.066406 203.769531 328.78125 206.085938 328.441406 208.390625 C 328.097656 210.699219 327.699219 212.996094 327.242188 215.28125 C 326.789062 217.570312 326.277344 219.84375 325.710938 222.105469 C 325.144531 224.367188 324.523438 226.617188 323.847656 228.847656 C 323.167969 231.078125 322.4375 233.292969 321.652344 235.488281 C 320.867188 237.683594 320.027344 239.859375 319.136719 242.015625 C 318.242188 244.167969 317.296875 246.300781 316.300781 248.410156 C 315.304688 250.515625 314.253906 252.597656 313.15625 254.65625 C 312.054688 256.710938 310.90625 258.742188 309.707031 260.742188 C 308.507812 262.742188 307.261719 264.710938 305.964844 266.652344 C 304.671875 268.589844 303.328125 270.496094 301.9375 272.371094 C 300.550781 274.242188 299.117188 276.082031 297.636719 277.882812 C 296.15625 279.6875 294.632812 281.453125 293.066406 283.179688 C 291.5 284.90625 289.894531 286.597656 288.246094 288.246094 C 286.597656 289.894531 284.90625 291.5 283.179688 293.066406 C 281.453125 294.632812 279.6875 296.15625 277.882812 297.636719 C 276.082031 299.117188 274.242188 300.550781 272.371094 301.9375 C 270.496094 303.328125 268.589844 304.671875 266.652344 305.964844 C 264.710938 307.261719 262.742188 308.507812 260.742188 309.707031 C 258.742188 310.90625 256.710938 312.054688 254.65625 313.15625 C 252.597656 314.253906 250.515625 315.304688 248.410156 316.300781 C 246.300781 317.296875 244.167969 318.242188 242.015625 319.136719 C 239.859375 320.027344 237.683594 320.867188 235.488281 321.652344 C 233.292969 322.4375 231.078125 323.167969 228.847656 323.847656 C 226.617188 324.523438 224.367188 325.144531 222.105469 325.710938 C 219.84375 326.277344 217.570312 326.789062 215.28125 327.242188 C 212.996094 327.699219 210.699219 328.097656 208.390625 328.441406 C 206.085938 328.78125 203.769531 329.066406 201.449219 329.296875 C 199.128906 329.523438 196.804688 329.695312 194.472656 329.808594 C 192.144531 329.925781 189.8125 329.980469 187.480469 329.980469 C 185.148438 329.980469 182.820312 329.925781 180.488281 329.808594 C 178.160156 329.695312 175.835938 329.523438 173.515625 329.296875 C 171.195312 329.066406 168.878906 328.78125 166.574219 328.441406 C 164.265625 328.097656 161.96875 327.699219 159.683594 327.242188 C 157.394531 326.789062 155.121094 326.277344 152.859375 325.710938 C 150.59375 325.144531 148.347656 324.523438 146.117188 323.847656 C 143.886719 323.167969 141.671875 322.4375 139.476562 321.652344 C 137.28125 320.867188 135.105469 320.027344 132.949219 319.136719 C 130.796875 318.242188 128.664062 317.296875 126.554688 316.300781 C 124.449219 315.304688 122.363281 314.253906 120.308594 313.15625 C 118.25 312.054688 116.222656 310.90625 114.222656 309.707031 C 112.222656 308.507812 110.253906 307.261719 108.3125 305.964844 C 106.375 304.671875 104.46875 303.328125 102.59375 301.9375 C 100.722656 300.550781 98.882812 299.117188 97.082031 297.636719 C 95.277344 296.15625 93.511719 294.632812 91.785156 293.066406 C 90.058594 291.5 88.367188 289.894531 86.71875 288.246094 C 85.070312 286.597656 83.460938 284.90625 81.898438 283.179688 C 80.332031 281.453125 78.808594 279.6875 77.328125 277.882812 C 75.847656 276.082031 74.414062 274.242188 73.023438 272.371094 C 71.636719 270.496094 70.292969 268.589844 68.996094 266.652344 C 67.703125 264.710938 66.453125 262.742188 65.253906 260.742188 C 64.058594 258.742188 62.90625 256.710938 61.808594 254.65625 C 60.707031 252.597656 59.660156 250.515625 58.664062 248.410156 C 57.667969 246.300781 56.722656 244.167969 55.828125 242.015625 C 54.9375 239.859375 54.097656 237.683594 53.3125 235.488281 C 52.527344 233.292969 51.796875 231.078125 51.117188 228.847656 C 50.441406 226.617188 49.820312 224.367188 49.253906 222.105469 C 48.6875 219.84375 48.175781 217.570312 47.71875 215.28125 C 47.265625 212.996094 46.867188 210.699219 46.523438 208.390625 C 46.183594 206.085938 45.898438 203.769531 45.667969 201.449219 C 45.441406 199.128906 45.269531 196.804688 45.152344 194.472656 C 45.039062 192.144531 44.980469 189.8125 44.980469 187.480469 C 44.980469 185.148438 45.039062 182.820312 45.152344 180.488281 C 45.269531 178.160156 45.441406 175.835938 45.667969 173.515625 C 45.898438 171.195312 46.183594 168.878906 46.523438 166.574219 C 46.867188 164.265625 47.265625 161.96875 47.71875 159.683594 C 48.175781 157.394531 48.6875 155.121094 49.253906 152.855469 C 49.820312 150.59375 50.441406 148.347656 51.117188 146.117188 C 51.796875 143.886719 52.527344 141.671875 53.3125 139.476562 C 54.097656 137.28125 54.9375 135.105469 55.828125 132.949219 C 56.722656 130.796875 57.667969 128.664062 58.664062 126.554688 C 59.660156 124.449219 60.707031 122.363281 61.808594 120.308594 C 62.90625 118.25 64.058594 116.222656 65.253906 114.222656 C 66.453125 112.222656 67.703125 110.253906 68.996094 108.3125 C 70.292969 106.375 71.636719 104.46875 73.023438 102.59375 C 74.414062 100.722656 75.847656 98.882812 77.328125 97.082031 C 78.808594 95.277344 80.332031 93.511719 81.898438 91.785156 C 83.460938 90.058594 85.070312 88.367188 86.71875 86.71875 C 88.367188 85.070312 90.058594 83.460938 91.785156 81.898438 C 93.511719 80.332031 95.277344 78.808594 97.082031 77.328125 C 98.882812 75.847656 100.722656 74.414062 102.59375 73.023438 C 104.46875 71.636719 106.375 70.292969 108.3125 68.996094 C 110.253906 67.703125 112.222656 66.453125 114.222656 65.253906 C 116.222656 64.058594 118.25 62.90625 120.308594 61.808594 C 122.363281 60.707031 124.449219 59.660156 126.554688 58.664062 C 128.664062 57.667969 130.796875 56.722656 132.949219 55.828125 C 135.105469 54.9375 137.28125 54.097656 139.476562 53.3125 C 141.671875 52.527344 143.886719 51.796875 146.117188 51.117188 C 148.347656 50.441406 150.59375 49.820312 152.859375 49.253906 C 155.121094 48.6875 157.394531 48.175781 159.683594 47.71875 C 161.96875 47.265625 164.265625 46.867188 166.574219 46.523438 C 168.878906 46.183594 171.195312 45.898438 173.515625 45.667969 C 175.835938 45.441406 178.160156 45.269531 180.488281 45.152344 C 182.820312 45.039062 185.148438 44.980469 187.480469 44.980469 C 189.8125 44.980469 192.144531 45.039062 194.472656 45.152344 C 196.804688 45.269531 199.128906 45.441406 201.449219 45.667969 C 203.769531 45.898438 206.085938 46.183594 208.390625 46.523438 C 210.699219 46.867188 212.996094 47.265625 215.28125 47.71875 C 217.570312 48.175781 219.84375 48.6875 222.105469 49.253906 C 224.367188 49.820312 226.617188 50.441406 228.847656 51.117188 C 231.078125 51.796875 233.292969 52.527344 235.488281 53.3125 C 237.683594 54.097656 239.859375 54.9375 242.015625 55.828125 C 244.167969 56.722656 246.300781 57.667969 248.410156 58.664062 C 250.515625 59.660156 252.597656 60.707031 254.65625 61.808594 C 256.710938 62.90625 258.742188 64.058594 260.742188 65.253906 C 262.742188 66.453125 264.710938 67.703125 266.652344 68.996094 C 268.589844 70.292969 270.496094 71.636719 272.371094 73.023438 C 274.242188 74.414062 276.082031 75.847656 277.882812 77.328125 C 279.6875 78.808594 281.453125 80.332031 283.179688 81.898438 C 284.90625 83.460938 286.597656 85.070312 288.246094 86.71875 C 289.894531 88.367188 291.5 90.058594 293.066406 91.785156 C 294.632812 93.511719 296.15625 95.277344 297.636719 97.082031 C 299.117188 98.882812 300.550781 100.722656 301.9375 102.59375 C 303.328125 104.46875 304.671875 106.375 305.964844 108.3125 C 307.261719 110.253906 308.507812 112.222656 309.707031 114.222656 C 310.90625 116.222656 312.054688 118.25 313.15625 120.308594 C 314.253906 122.363281 315.304688 124.449219 316.300781 126.554688 C 317.296875 128.664062 318.242188 130.796875 319.136719 132.949219 C 320.027344 135.105469 320.867188 137.28125 321.652344 139.476562 C 322.4375 141.671875 323.167969 143.886719 323.847656 146.117188 C 324.523438 148.347656 325.144531 150.59375 325.710938 152.855469 C 326.277344 155.121094 326.789062 157.394531 327.242188 159.683594 C 327.699219 161.96875 328.097656 164.265625 328.441406 166.574219 C 328.78125 168.878906 329.066406 171.195312 329.296875 173.515625 C 329.523438 175.835938 329.695312 178.160156 329.808594 180.488281 C 329.925781 182.820312 329.980469 185.148438 329.980469 187.480469 Z M 329.980469 187.480469 " fill-opacity="1" fill-rule="nonzero"/></g><path fill="#ffffff" d="M 121.503906 113.945312 C 104.535156 132.539062 102.53125 173.179688 152.101562 222.8125 C 152.121094 222.828125 152.128906 222.839844 152.148438 222.855469 C 152.164062 222.875 152.175781 222.886719 152.195312 222.902344 C 201.824219 272.480469 242.414062 270.417969 261.007812 253.449219 C 268.0625 247.007812 271.085938 240.132812 272.285156 234.558594 C 273.625 228.339844 270.21875 222.070312 264.398438 219.503906 L 233.972656 206.085938 C 231.476562 204.988281 228.554688 205.625 226.761719 207.675781 C 223.175781 211.765625 217.023438 218.710938 211.871094 224.191406 C 203.746094 224.730469 183.121094 211.695312 173.1875 201.761719 C 163.25 191.824219 150.214844 171.203125 150.757812 163.074219 C 156.234375 157.925781 163.183594 151.773438 167.269531 148.1875 C 169.320312 146.386719 169.960938 143.472656 168.859375 140.976562 L 155.441406 110.550781 C 152.878906 104.730469 146.601562 101.320312 140.390625 102.660156 C 134.820312 103.867188 127.941406 106.894531 121.503906 113.945312 Z M 121.503906 113.945312 " fill-opacity="1" fill-rule="nonzero"/></svg>