<svg xmlns="http://www.w3.org/2000/svg" xmlns:xlink="http://www.w3.org/1999/xlink" width="576" zoomAndPan="magnify" viewBox="0 0 432 287.999989" height="384" preserveAspectRatio="xMidYMid meet" version="1.0"><defs><clipPath id="fcb48b1f66"><path d="M 0 233.878906 L 49.492188 233.878906 L 49.492188 288 L 0 288 Z M 0 233.878906 " clip-rule="nonzero"/></clipPath><clipPath id="a91af600b5"><path d="M 20 233 L 81 233 L 81 288 L 20 288 Z M 20 233 " clip-rule="nonzero"/></clipPath><clipPath id="fdbbc83811"><path d="M 22.355469 233.878906 L 96.523438 255.480469 L 64.226562 366.375 L -9.941406 344.769531 Z M 22.355469 233.878906 " clip-rule="nonzero"/></clipPath><clipPath id="ab651734f3"><path d="M 22.355469 233.878906 L 96.523438 255.480469 L 64.226562 366.375 L -9.941406 344.769531 Z M 22.355469 233.878906 " clip-rule="nonzero"/></clipPath><clipPath id="ee416670ba"><path d="M 44.101562 234 L 148.351562 234 L 148.351562 288 L 44.101562 288 Z M 44.101562 234 " clip-rule="nonzero"/></clipPath><clipPath id="1bb7c50294"><path d="M 96.363281 242.359375 L 250.863281 242.359375 L 250.863281 288 L 96.363281 288 Z M 96.363281 242.359375 " clip-rule="nonzero"/></clipPath><clipPath id="3acd20b94b"><path d="M 144.242188 246.269531 L 221.492188 246.269531 L 221.492188 288 L 144.242188 288 Z M 144.242188 246.269531 " clip-rule="nonzero"/></clipPath><clipPath id="a2865f2a1d"><path d="M 192 246 L 253 246 L 253 288 L 192 288 Z M 192 246 " clip-rule="nonzero"/></clipPath><clipPath id="a687ac060b"><path d="M 194.355469 246.269531 L 268.523438 267.871094 L 236.226562 378.761719 L 162.058594 357.160156 Z M 194.355469 246.269531 " clip-rule="nonzero"/></clipPath><clipPath id="60941ffa2b"><path d="M 194.355469 246.269531 L 268.523438 267.871094 L 236.226562 378.761719 L 162.058594 357.160156 Z M 194.355469 246.269531 " clip-rule="nonzero"/></clipPath><clipPath id="2d917d370b"><path d="M 216.101562 246.269531 L 320.351562 246.269531 L 320.351562 288 L 216.101562 288 Z M 216.101562 246.269531 " clip-rule="nonzero"/></clipPath><clipPath id="c5e5639eec"><path d="M 268.363281 254.746094 L 422.863281 254.746094 L 422.863281 288 L 268.363281 288 Z M 268.363281 254.746094 " clip-rule="nonzero"/></clipPath><clipPath id="b963e3d4db"><path d="M 334.121094 254.746094 L 432 254.746094 L 432 288 L 334.121094 288 Z M 334.121094 254.746094 " clip-rule="nonzero"/></clipPath></defs><rect x="-43.2" width="518.4" fill="#ffffff" y="-28.799999" height="345.599986" fill-opacity="1"/><rect x="-43.2" width="518.4" fill="#041026" y="-28.799999" height="345.599986" fill-opacity="1"/><g clip-path="url(#fcb48b1f66)"><path fill="#e5dfe1" d="M -27.566406 233.878906 L 3.800781 349.078125 L 49.132812 320.125 L 43.039062 268.726562 L 9.316406 255.914062 L -1.804688 237.714844 Z M -27.566406 233.878906 " fill-opacity="1" fill-rule="evenodd"/></g><g clip-path="url(#a91af600b5)"><g clip-path="url(#fdbbc83811)"><g clip-path="url(#ab651734f3)"><path fill="#e5dfe1" d="M 22.539062 233.933594 L 20.441406 353.308594 L 72.0625 338.1875 L 80.582031 287.132812 L 51.789062 265.402344 L 46.203125 244.820312 Z M 22.539062 233.933594 " fill-opacity="1" fill-rule="evenodd"/></g></g></g><g clip-path="url(#ee416670ba)"><path fill="#e5dfe1" d="M 82.488281 234.25 L 44.101562 291.898438 L 69.910156 348.714844 L 144.480469 304.089844 L 148.644531 242.347656 Z M 82.488281 234.25 " fill-opacity="1" fill-rule="evenodd"/></g><g clip-path="url(#1bb7c50294)"><path fill="#e5dfe1" d="M 109.191406 279.128906 L 96.730469 357.574219 L 229.5625 292.699219 L 250.195312 242.359375 Z M 109.191406 279.128906 " fill-opacity="1" fill-rule="evenodd"/></g><g clip-path="url(#3acd20b94b)"><path fill="#e5dfe1" d="M 144.433594 246.269531 L 175.800781 361.46875 L 221.132812 332.515625 L 215.039062 281.117188 L 181.316406 268.304688 L 170.195312 250.105469 Z M 144.433594 246.269531 " fill-opacity="1" fill-rule="evenodd"/></g><g clip-path="url(#a2865f2a1d)"><g clip-path="url(#a687ac060b)"><g clip-path="url(#60941ffa2b)"><path fill="#e5dfe1" d="M 194.539062 246.320312 L 192.441406 365.699219 L 244.0625 350.574219 L 252.582031 299.523438 L 223.789062 277.792969 L 218.203125 257.210938 Z M 194.539062 246.320312 " fill-opacity="1" fill-rule="evenodd"/></g></g></g><g clip-path="url(#2d917d370b)"><path fill="#e5dfe1" d="M 254.488281 246.636719 L 216.101562 304.289062 L 241.910156 361.105469 L 316.480469 316.480469 L 320.644531 254.738281 Z M 254.488281 246.636719 " fill-opacity="1" fill-rule="evenodd"/></g><g clip-path="url(#c5e5639eec)"><path fill="#e5dfe1" d="M 281.191406 291.519531 L 268.730469 369.964844 L 401.5625 305.089844 L 422.195312 254.746094 Z M 281.191406 291.519531 " fill-opacity="1" fill-rule="evenodd"/></g><g clip-path="url(#b963e3d4db)"><path fill="#e5dfe1" d="M 346.953125 291.519531 L 334.488281 369.964844 L 467.324219 305.089844 L 487.953125 254.746094 Z M 346.953125 291.519531 " fill-opacity="1" fill-rule="evenodd"/></g></svg>